<?xml version="1.0" encoding="utf-8"?>
<!-- Generator: Adobe Illustrator 21.0.0, SVG Export Plug-In . SVG Version: 6.00 Build 0)  -->
<svg version="1.1" id="Camada_1" xmlns="http://www.w3.org/2000/svg" xmlns:xlink="http://www.w3.org/1999/xlink" x="0px" y="0px"
	 viewBox="0 0 100 100" style="enable-background:new 0 0 100 100;" xml:space="preserve">
<style type="text/css">
	.st0{fill:#FFFFFF;}
</style>
<path id="XMLID_22_" class="st0" d="M89.5,35.1c7.3,17,4,37.5-9.9,51.3c-18.2,18.2-47.8,18.2-65.9,0c-18.2-18.2-18.2-47.8,0-65.9
	c13.8-13.9,34.2-17.2,51.2-10c-2.6,1.8-5.2,3.8-7.7,5.9c-13-3.7-27.6-0.5-37.8,9.8c-15,15-15,39.4,0,54.4s39.4,15,54.4,0
	C84,70.4,87.3,55.8,83.6,42.8C85.7,40.2,87.6,37.7,89.5,35.1z"/>
<path id="XMLID_27_" class="st0" d="M100,0L100,0c-2,11.5-8.2,23.9-18.1,34.8c-8.8,8.9-11,10.2-12.4,11.3
	c-5.4,11.1-13.9,22.5-25,32.8c-2.6,2.4-5.2,4.6-7.9,6.7c4.3-8.8,6.5-18,6.2-26.4c7.3-3.7,14.5-8.7,21.3-15
	c10.3-9.5,17.6-19.7,22.1-30.3c-10.8,4.5-21,11.8-30.5,22.1c-6.2,6.7-11.2,14-15,21.2c-8.4-0.2-17.5,1.9-26.4,6.2
	c2.1-2.7,4.3-5.3,6.7-7.9c10.2-11.1,21.6-19.6,32.8-25c1.1-1.4,2.4-3.7,11.3-12.4C76.1,8.2,88.5,2,100,0L100,0z"/>
</svg>
