<?xml version="1.0" encoding="utf-8"?>
<!-- Generator: Adobe Illustrator 19.0.0, SVG Export Plug-In . SVG Version: 6.00 Build 0)  -->
<svg version="1.1" id="Camada_1" xmlns="http://www.w3.org/2000/svg" xmlns:xlink="http://www.w3.org/1999/xlink" x="0px" y="0px"
	 viewBox="-86 36.7 26.5 34.3" style="enable-background:new -86 36.7 26.5 34.3;" xml:space="preserve">
<g>
	<g>
		<path d="M-80.1,54.8c-0.1-0.6-0.1-1.3-0.2-1.9c-0.3-3.3-0.6-6.6-0.9-9.9c-0.1-0.7-0.1-1.4-0.2-2.1c0-2.2,1.7-4.1,4-4.1
			c3,0,6.1,0,9.1,0c2.4,0,4.3,2.2,4,4.6c-0.3,2.3-0.5,4.7-0.7,7c-0.2,2.1-0.4,4.1-0.6,6.2c0,0.1,0,0.2-0.1,0.3
			C-70.4,53.8-75.2,53.8-80.1,54.8z"/>
		<path d="M-84,52.8c0.7,0,1.4,0,2,0c0.1,0.4,0.1,0.9,0.2,1.3c0.1,0.6,0.4,1.2,0.8,1.6c0.2,0.2,0.5,0.3,0.8,0.3
			c1.8-0.5,3.7-0.6,5.6-0.7c2.4-0.1,4.8,0,7.2,0.4c0.5,0.1,1.1,0.2,1.6,0.3c0.5,0.2,0.9,0,1.2-0.4c0.5-0.5,0.7-1.2,0.8-1.9
			c0-0.2,0-0.5,0.1-0.7c0.7,0,1.4,0,2.1,0c0,0.5,0,1,0,1.5c0,0.8,0,1.6,0,2.5c0,1.5-0.9,2.4-2.4,2.4c-1.9,0-3.9,0-5.8,0
			c-4,0-7.9,0-11.9,0c-1,0-1.8-0.3-2.2-1.2c-0.1-0.3-0.2-0.7-0.2-1c0-1.3,0-2.7,0-4C-84,53-84,52.9-84,52.8z"/>
		<path d="M-74.7,63.6c0-1.1,0-2.1,0-3.2c1.3,0,2.6,0,3.9,0c0,1.1,0,2.1,0,3.2c0.7,0.1,1.3,0.2,1.9,0.3c1.3,0.3,2.6,0.7,3.8,1.4
			c0.5,0.3,1,0.8,1.3,1.3c0.5,0.8,0.3,1.9-0.5,2.5c-0.8,0.6-1.8,0.4-2.4-0.3c-0.6-0.7-0.6-1.8,0.1-2.5c0-0.1,0.1-0.1,0.2-0.2
			c-1.7-0.8-3.5-1.1-5.5-1.2c0,0.8,0,1.6,0,2.4c0,0.1,0.2,0.2,0.3,0.3c0.6,0.4,0.9,1.2,0.8,1.9c-0.2,0.8-0.8,1.3-1.6,1.4
			c-0.7,0.1-1.5-0.3-1.8-1c-0.4-0.8-0.1-1.8,0.7-2.4c0.1-0.1,0.2-0.2,0.2-0.3c0-0.8,0-1.5,0-2.3c-1.9,0.1-3.7,0.4-5.4,1.2
			c0.2,0.4,0.4,0.8,0.5,1.3c0.2,0.7-0.2,1.5-0.9,1.9c-0.7,0.4-1.5,0.3-2.1-0.2c-0.6-0.5-0.8-1.3-0.5-2c0.3-0.9,1-1.5,1.7-1.9
			c1.5-0.9,3.1-1.2,4.7-1.5C-75.2,63.6-75,63.6-74.7,63.6z"/>
		<path d="M-64,51.9c-0.1-1,0.8-2.1,1.8-2.3c0.9-0.2,1.6,0.1,2.3,0.7c0.3,0.3,0.4,0.6,0.2,1c-0.1,0.4-0.4,0.6-0.8,0.6
			C-61.6,51.9-62.8,51.9-64,51.9z"/>
		<path d="M-81.5,51.9c-0.1,0-0.2,0-0.3,0c-1,0-2,0-3.1,0c-0.5,0-0.9-0.2-1-0.6c-0.2-0.4,0-0.8,0.4-1.1c0.7-0.7,1.8-0.8,2.6-0.4
			C-82.1,50.2-81.6,50.9-81.5,51.9z"/>
	</g>
</g>
</svg>
