<?xml version="1.0" encoding="utf-8"?>
<!-- Generator: Adobe Illustrator 19.0.0, SVG Export Plug-In . SVG Version: 6.00 Build 0)  -->
<svg version="1.1" id="Camada_2" xmlns="http://www.w3.org/2000/svg" xmlns:xlink="http://www.w3.org/1999/xlink" x="0px" y="0px"
	 viewBox="-86 37.1 12.3 12.3" style="enable-background:new -86 37.1 12.3 12.3;" xml:space="preserve">
<g>
	<g>
		<path d="M-78.1,39.8C-78.1,39.8-78.1,39.9-78.1,39.8c0,0.1-0.1,0.1-0.1,0.1c-0.4,0.3-0.8,0.6-1.2,0.9c-0.1-0.1-0.2-0.2-0.4-0.3
			c0,1.3,0,2.6,0,3.9c-1.2,0-2.4,0-3.6,0c0-1.3,0-2.6,0-3.9c-0.1,0.1-0.3,0.2-0.4,0.3c-0.3-0.2-0.6-0.5-0.9-0.7
			c-0.1-0.1-0.3-0.2-0.4-0.3c0,0,0,0,0,0c0.4-0.4,0.8-0.7,1.1-1.1c0.1-0.1,0.1-0.1,0.2-0.1c0.3-0.1,0.7-0.3,1-0.4c0.1,0,0.2,0,0.2,0
			c0.5,0.5,1.3,0.5,1.8,0c0.1-0.1,0.1-0.1,0.2,0c0.3,0.1,0.7,0.3,1,0.4c0.1,0,0.1,0.1,0.2,0.1C-78.8,39.1-78.4,39.5-78.1,39.8z"/>
	</g>
</g>
<g>
	<g>
		<path d="M-75.4,44.4c0,0,0-0.1,0-0.1c0.1-0.1,0.1-0.2,0.1-0.4c0-0.1,0.1-0.2,0.1-0.4c0-0.2,0-0.4-0.1-0.5c0-0.1-0.1-0.1-0.2-0.1
			c-0.1,0-0.2-0.1-0.3-0.1c-0.1,0-0.2,0-0.4,0.1c-0.2,0.1-0.4,0.2-0.5,0.3c-0.2,0.2-0.4,0.4-0.7,0.6c-0.1,0.1-0.1,0.1-0.2,0.2
			c0,0,0,0,0,0c0,0.1,0,0.1,0,0.1c0.2,0.1,0.4,0.2,0.6,0.4c0.2,0.2,0.4,0.4,0.5,0.5c0.1,0.1,0.2,0.2,0.3,0.2c0,0,0,0,0,0
			c0,0,0,0,0.1-0.1c0,0,0-0.1,0.1-0.1c0.1-0.1,0.1-0.1,0.1-0.2c0-0.1,0.1-0.1,0.1-0.2c0-0.1,0.1-0.1,0.1-0.1
			C-75.5,44.5-75.4,44.4-75.4,44.4z"/>
		<path d="M-77.6,44c-0.1,0-0.3-0.1-0.4-0.1c-0.2,0-0.3,0-0.5,0.1c-0.1,0-0.3,0-0.4,0c0,0,0,0,0,0c0,0,0,0,0,0
			c0.2,0,0.3,0.1,0.4,0.2c0.1,0,0.1,0.1,0.2,0.1c0.1,0.1,0.2,0.3,0.3,0.4c0.1,0.1,0.2,0.3,0.3,0.4c0.1,0.1,0.2,0.2,0.2,0.3
			c0.1,0.2,0.3,0.2,0.4,0.3c0.1,0,0.3,0,0.4,0c0.2,0,0.3-0.1,0.5-0.1c0.1,0,0.3-0.1,0.4-0.1c0,0,0,0,0,0c0,0,0,0,0,0
			c-0.2-0.1-0.4-0.3-0.5-0.4c-0.1-0.1-0.2-0.2-0.3-0.3c-0.1-0.1-0.2-0.2-0.3-0.3c0,0-0.1-0.1-0.1-0.1c0,0-0.1-0.1-0.1-0.1
			c-0.1-0.1-0.2-0.1-0.3-0.2C-77.5,44.1-77.5,44.1-77.6,44z"/>
		<path d="M-75.5,45.6c0.1,0,0.1,0.1,0.2,0.1c0.1,0,0.2,0.1,0.3,0.1c0.1,0,0.2,0,0.3-0.1c0,0,0.1-0.1,0.1-0.2c0,0,0.1-0.1,0-0.1
			c0.1-0.1,0.1-0.3,0.1-0.4c0-0.2,0.1-0.3,0.1-0.5c0-0.1,0-0.2,0-0.3c0-0.1,0-0.2,0-0.3c0,0,0-0.1,0-0.1c-0.1-0.2-0.2-0.4-0.3-0.5
			c-0.1-0.1-0.2-0.2-0.2-0.2c0,0,0,0,0,0c0,0,0,0,0,0c0,0.1,0,0.2,0,0.3c0,0.1,0,0.2,0,0.3c0,0.1-0.1,0.2-0.1,0.3c0,0,0,0,0,0
			c-0.1,0.2-0.2,0.5-0.3,0.7c0,0.1-0.1,0.2-0.1,0.2c0,0-0.1,0.1-0.1,0.1c0,0,0,0.1-0.1,0.1c0,0,0,0.1-0.1,0.1c0,0,0,0.1-0.1,0.1
			c0,0,0,0,0,0c0,0,0,0,0.1,0.1C-75.7,45.5-75.6,45.6-75.5,45.6C-75.5,45.6-75.5,45.6-75.5,45.6z"/>
		<path d="M-77.8,43.8C-77.9,43.9-77.8,43.9-77.8,43.8C-77.8,43.9-77.8,43.9-77.8,43.8c0.1,0.1,0.2,0.1,0.3,0.2c0,0,0.1,0,0.1,0
			c0.1-0.2,0.3-0.4,0.5-0.5c0.1-0.1,0.3-0.2,0.4-0.4c0.2-0.2,0.4-0.2,0.6-0.3c0,0,0,0,0,0c0,0,0,0,0,0c0,0,0,0,0,0
			c-0.1,0-0.2,0-0.2,0c-0.1,0-0.3,0-0.4,0c-0.2,0-0.5,0.2-0.6,0.3c-0.1,0.1-0.2,0.2-0.3,0.3c-0.1,0.1-0.2,0.2-0.2,0.3
			C-77.8,43.7-77.7,43.8-77.8,43.8z"/>
		<path d="M-78.7,44.2c-0.1,0-0.3-0.1-0.4-0.1c-0.1,0-0.1,0-0.1,0.1c-0.1,0.1-0.1,0.1,0,0.2c0.1,0.1,0.2,0.1,0.3,0.1
			c0.1,0,0.3,0,0.4-0.1c0,0,0,0,0,0c0,0,0,0,0,0C-78.6,44.3-78.6,44.3-78.7,44.2z"/>
		<path d="M-75.2,42.8C-75.3,42.8-75.3,42.8-75.2,42.8C-75.3,42.8-75.3,42.8-75.2,42.8C-75.3,42.8-75.3,42.8-75.2,42.8
			C-75.3,42.8-75.2,42.8-75.2,42.8c0.1,0.1,0.1,0.1,0.1,0.1C-75.1,42.9-75.1,42.9-75.2,42.8C-75.2,42.8-75.2,42.8-75.2,42.8
			C-75.2,42.8-75.2,42.8-75.2,42.8z"/>
		<path d="M-79,44C-79,44.1-79,44.1-79,44C-79,44.1-79,44.1-79,44C-79,44.1-79,44-79,44C-79,44-79,44-79,44z"/>
		<path d="M-75.8,42.7C-75.8,42.7-75.8,42.7-75.8,42.7C-75.8,42.7-75.8,42.7-75.8,42.7C-75.8,42.7-75.8,42.7-75.8,42.7
			C-75.8,42.7-75.8,42.7-75.8,42.7z"/>
	</g>
</g>
<g>
	<g>
		<path d="M-80.3,47.8c0,0.1,0.1,0.1,0.1,0.2c-0.3,0.1-0.5,0.2-0.8,0.3c0-0.1-0.1-0.1-0.1-0.2c0,0,0,0,0,0c-0.2,0.1-0.5,0.2-0.7,0.3
			c-0.1,0-0.2,0.1-0.4,0c-0.2,0-0.3-0.1-0.4-0.2c0,0,0,0,0,0c-0.2,0-0.5-0.1-0.7-0.1c0,0,0,0,0,0c-0.1-0.3-0.3-0.6-0.4-0.9
			c0,0,0,0,0,0c0.1-0.2,0.3-0.4,0.4-0.6c0,0,0,0,0,0c0-0.1,0-0.3,0.1-0.4c0-0.1,0.1-0.2,0.2-0.2c0,0,0.1,0,0.1-0.1
			c0.5-0.2,1-0.4,1.5-0.6c0.1-0.1,0.3-0.1,0.4,0c0.1,0,0.2,0.1,0.3,0.2c0,0,0,0,0.1,0.1c0,0,0,0,0,0c0.2,0,0.5,0.1,0.7,0.1
			c0,0,0,0,0,0c0.1,0.3,0.3,0.6,0.4,0.9c0,0,0,0,0,0c-0.1,0.2-0.3,0.4-0.4,0.6c0,0,0,0,0,0c0,0.1,0,0.2,0,0.3c0,0.1-0.1,0.2-0.2,0.3
			C-80.2,47.7-80.2,47.7-80.3,47.8z M-81.2,47.7c0.1,0,0.2-0.1,0.3-0.1c0.2-0.1,0.3-0.1,0.5-0.2c0.1,0,0.1-0.1,0.1-0.1
			c0,0,0-0.1,0-0.1c-0.2-0.4-0.4-0.9-0.6-1.3c0,0,0,0,0,0c0-0.1-0.1-0.1-0.2-0.1c0,0-0.1,0-0.1,0c-0.5,0.2-1,0.4-1.5,0.6
			c0,0,0,0,0,0c-0.1,0-0.1,0.1-0.1,0.2c0,0,0,0.1,0,0.1c0.2,0.4,0.4,0.9,0.6,1.3c0,0,0,0,0,0c0,0.1,0.1,0.1,0.1,0.1c0,0,0.1,0,0.1,0
			C-81.7,47.9-81.5,47.8-81.2,47.7z"/>
	</g>
</g>
<path d="M-77.8,43.8c0,0,0.5,0.3,0.7,0.4s1.2,1.1,1.2,1.1s0.2,0.1,0.3,0.2c0.1,0.1,1.1-2,1.1-2l-0.5-0.5c0,0-0.1-0.3-0.7-0.3
	c-0.6,0-1.2,0.6-1.2,0.6L-77.8,43.8z"/>
</svg>
