<?xml version="1.0" encoding="utf-8"?>
<!-- Generator: Adobe Illustrator 19.0.0, SVG Export Plug-In . SVG Version: 6.00 Build 0)  -->
<svg version="1.1" id="Capa_1" xmlns="http://www.w3.org/2000/svg" xmlns:xlink="http://www.w3.org/1999/xlink" x="0px" y="0px"
	 viewBox="41 20 281 171" style="enable-background:new 41 20 281 171;" xml:space="preserve">
<g>
	<path d="M322,40.6c0-8.3-6.7-15-15-15H56c-8.3,0-15,6.7-15,15v130c0,8.3,6.7,15,15,15h251c8.3,0,15-6.7,15-15V40.6z M72,80.6h28v19
		H72V80.6z M219,113.6v19h-28v-19H219z M215,99.6v-19h27v19H215z M195,99.6h-28v-19h28V99.6z M171,113.6v19h-28v-19H171z M147,99.6
		h-27v-19h27V99.6z M124,113.6v19H96v-19H124z M100,165.6H72v-19h28V165.6z M238,165.6H124v-19h114V165.6z M238,113.6h28v19h-28
		V113.6z M290,165.6h-28v-19h28V165.6z M290,99.6h-28v-19h28V99.6z M290,64.6h-13.7h-13.8H100.2H86.4H72v-19h14.4h13.8h162.3h13.8
		H290V64.6z"/>
</g>
</svg>
