<?xml version="1.0" encoding="utf-8"?>
<!-- Generator: Adobe Illustrator 19.0.0, SVG Export Plug-In . SVG Version: 6.00 Build 0)  -->
<svg version="1.1" xmlns="http://www.w3.org/2000/svg" xmlns:xlink="http://www.w3.org/1999/xlink" x="0px" y="0px"
	 viewBox="0 0 533.9 128.7" style="enable-background:new 0 0 533.9 128.7;" xml:space="preserve">
<style type="text/css">
	.st0{fill:#FAFAFA;}
</style>
<g id="Layer_2">
</g>
<g id="Layer_1">
	<g id="XMLID_2_">
		<path id="XMLID_13_" class="st0" d="M248.1,41.4h-28.9c-3,0-5.4,0.9-8.3,2.6c-3.5,2-6.7,5.7-7.4,9.6c-3.6,19.6-5.5,30.1-5.5,31.6
			v1c0,0.9,0.1,2.1,0.4,3.1c1.7,4.9,5.8,8,10.8,8h28.8c2.7,0,5.5-0.8,8.3-2.6c3.3-2.1,6.3-5.1,7.3-9.6c3.6-19.6,5.4-29.3,5.5-31.6
			v-1c0-0.9,0-2.1-0.4-3.1C257.1,44.1,253.1,41.4,248.1,41.4z M242.4,78.7c-1.1,5-4.8,7-8.5,7H218c-3.3,0-6-2.1-6-6.3
			c0-1.4,1-7.8,3.1-19.3c1.4-5.4,4.7-7,8.5-7h15.8c3.3,0,6,1.5,6,6.3C245.5,60.8,244.4,67.2,242.4,78.7z"/>
		<path id="XMLID_18_" class="st0" d="M310.9,41.5h-28.8c-12.4,0-14.7,7.6-15.6,12.1c-3.6,19.6-5.5,30.1-5.5,31.6c0,0-0.2,2.3,0.4,4
			c2.2,5.3,5.8,8,10.7,8H301c5.4,0,10.3-2.7,14.1-8.6c1.1-1.7,2.3-6,3.4-13.3c-1.4-0.4-12-2.7-15.3,6.6c-1.2,2.5-3.3,3.8-6.4,3.8
			h-15.9c-3.4,0-6-2.1-6-6.3c-0.1-1.5,1-7.8,3.1-19.3c0.9-4.7,4.8-7,8.5-7h16.2c4.2,0,4.7,1.4,5.3,4.6c1.1,6.8,12.4,6,12.4,6
			c1.7-5.7,1.7-11.2,1.7-11.2C322.1,47.1,317.3,41.5,310.9,41.5z"/>
		<path id="XMLID_19_" class="st0" d="M357.6,66.2V66c0-0.4,6.4-8.3,19.2-23.8c0-0.3-2.4-0.6-7.2-0.9c-4.5,0-9,1.5-11.8,5.1
			l-10.5,13h-4.4l5.4-34.7c-1.5,0-12.8-0.7-15,12.2c-5.7,31-8.6,47.1-8.6,48.2l-0.1,1.4c0,1.7,7.3,10.6,10.2,10.6h0.3
			c3.6-16.2,5.4-24.6,5.4-25.2h4l11.2,14.7c6.1,8.3,9.8,10.5,15.9,10.5c2.8,0,4.9-0.5,6.4-1.4l-12-17.4
			C360.4,70.7,357.6,66.6,357.6,66.2z"/>
		<path id="XMLID_24_" class="st0" d="M429.8,41.5h-28.8c-11.6,0-14.8,7.7-15.6,12.1c-3.6,19.6-5.5,30.1-5.5,31.6
			c0,0-1.4,12,11.2,12h28.9c12.2,0,14.8-9.8,15.2-11.6l-35.5,0c-6.8,0.2-5.6-9.9-5.6-9.9h32.4c4.9,0,8.8-2.8,11.7-8.4
			c0.9-1.9,1.8-6.5,2.7-13.8C441,53.6,442.7,41.5,429.8,41.5z M415.6,64.3h-19.4c0-10.4,5-11.2,9-11.2h18.5c0,0,4-0.1,3.8,1.8
			C426.6,63.4,427.8,64.6,415.6,64.3z"/>
		<path id="XMLID_25_" class="st0" d="M525.9,62c6.1-4.7,8-8.1,8-11.6c0,0,0.1-9-9.2-9h-26.4c-10,0-13.9,7.7-15.1,11.4v0.1h33.9V53
			l-25.2,19.5C479.1,82,480,88.6,480,88.6c0.2,5.8-0.4,9.5,25.1,8.7h12.6c11.8,0,15-11.5,15-11.5h-36.8L525.9,62z"/>
		<path id="XMLID_29_" class="st0" d="M201.7,43.1c0-0.9-0.8-1.7-1.7-1.7h-38.4c-11.3,0-14.9,6.5-15.9,12.3
			c-6.1,30.4-10.1,43.2,5.4,43.6h0.2l6-36.8c1.4-7.1,4.4-7.4,8.6-7.4c0,0,26.6-0.2,27.6-0.6C198.9,50.6,201.7,47.5,201.7,43.1z"/>
		<path id="XMLID_30_" class="st0" d="M481.1,41.4l-17.7,0l2.8-15.9c-0.8,0-12.9-0.3-15.2,13c-5.1,28.6-7.8,44.2-8.1,46.6l0,0.1
			c-0.3,2.4,0.5,12.1,10.3,12.1h0.1c0.5-1.7,3.2-16.4,8-43.9h7.6c9.7,0,12.2-5.4,12.2-10.3V41.4z"/>
	</g>
	<path id="XMLID_22_" class="st0" d="M115.1,45.1c9.3,21.9,5.1,48.2-12.7,66c-23.4,23.4-61.5,23.4-84.8,0
		c-23.4-23.4-23.4-61.4,0-84.8c17.8-17.8,44.1-22.1,66-12.7c-3.4,2.4-6.7,4.9-10,7.6c-16.7-4.8-35.5-0.6-48.7,12.6
		c-19.3,19.3-19.3,50.7,0,70c19.3,19.3,50.7,19.3,70,0c13.2-13.2,17.3-31.9,12.6-48.7C110.2,51.8,112.8,48.5,115.1,45.1z"/>
	<path id="XMLID_27_" class="st0" d="M128.7,0C128.7,0,128.7,0,128.7,0c-2.6,14.8-10.6,30.8-23.3,44.8c-11.3,11.4-14.1,13.2-16,14.6
		c-7,14.3-17.9,29-32.2,42.2c-3.3,3.1-6.8,6-10.2,8.7c5.6-11.4,8.3-23.1,8-34C64.4,71.4,73.7,65,82.4,57
		c13.3-12.2,22.7-25.3,28.4-39c-13.7,5.7-26.8,15.1-39,28.4c-8,8.7-14.5,18-19.3,27.3c-10.9-0.3-22.6,2.5-34,8
		c2.7-3.5,5.6-6.9,8.7-10.2C40.3,57.2,55,46.3,69.3,39.3c1.4-1.8,3.1-4.7,14.6-16C97.9,10.6,113.9,2.6,128.7,0
		C128.7,0,128.7,0,128.7,0z"/>
</g>
</svg>
