<?xml version="1.0" encoding="utf-8"?>
<!-- Generator: Adobe Illustrator 19.0.0, SVG Export Plug-In . SVG Version: 6.00 Build 0)  -->
<svg version="1.1" id="Camada_1" xmlns="http://www.w3.org/2000/svg" xmlns:xlink="http://www.w3.org/1999/xlink" x="0px" y="0px"
	 viewBox="0 0 150.8 27.7" style="enable-background:new 0 0 150.8 27.7;" xml:space="preserve">
<style type="text/css">
	.st0{fill:#FFFFFF;}
</style>
<g id="XMLID_2_">
	<path id="XMLID_13_" class="st0" d="M41.3,6.4H30.3c-1.1,0-2.1,0.3-3.2,1c-1.3,0.8-2.5,2.2-2.8,3.7c-1.4,7.5-2.1,11.5-2.1,12.1v0.4
		c0,0.3,0,0.8,0.2,1.2c0.7,1.9,2.2,3.1,4.1,3.1h11c1,0,2.1-0.3,3.2-1c1.3-0.8,2.4-1.9,2.8-3.7c1.4-7.5,2.1-11.2,2.1-12.1v-0.4
		c0-0.3,0-0.8-0.1-1.2C44.8,7.4,43.2,6.4,41.3,6.4z M39.1,20.6c-0.4,1.9-1.8,2.7-3.3,2.7h-6.1c-1.3,0-2.3-0.8-2.3-2.4
		c0-0.5,0.4-3,1.2-7.4c0.5-2.1,1.8-2.7,3.3-2.7H38c1.3,0,2.3,0.6,2.3,2.4C40.3,13.8,39.9,16.2,39.1,20.6z"/>
	<path id="XMLID_18_" class="st0" d="M65.4,6.4h-11c-4.7,0-5.6,2.9-6,4.6c-1.4,7.5-2.1,11.5-2.1,12.1c0,0-0.1,0.9,0.2,1.5
		c0.8,2,2.2,3.1,4.1,3.1h11c2.1,0,3.9-1,5.4-3.3c0.4-0.7,0.9-2.3,1.3-5.1c-0.5-0.2-4.6-1-5.8,2.5c-0.5,1-1.3,1.4-2.5,1.4h-6.1
		c-1.3,0-2.3-0.8-2.3-2.4c-0.1-0.6,0.4-3,1.2-7.4c0.3-1.8,1.8-2.7,3.3-2.7h6.2c1.6,0,1.8,0.5,2,1.8c0.4,2.6,4.8,2.3,4.8,2.3
		c0.6-2.2,0.6-4.3,0.6-4.3C69.6,8.5,67.8,6.4,65.4,6.4z"/>
	<path id="XMLID_19_" class="st0" d="M83.2,15.8L83.2,15.8c0-0.2,2.5-3.2,7.4-9.2c0-0.1-0.9-0.2-2.8-0.3c-1.7,0-3.4,0.6-4.5,2l-4,5
		h-1.7L79.7,0c-0.6,0-4.9-0.3-5.7,4.7c-2.2,11.9-3.3,18-3.3,18.5l0,0.5c0,0.7,2.8,4.1,3.9,4.1h0.1c1.4-6.2,2.1-9.4,2.1-9.6h1.5
		l4.3,5.6c2.3,3.2,3.7,4,6.1,4c1.1,0,1.9-0.2,2.4-0.5l-4.6-6.7C84.3,17.6,83.2,16,83.2,15.8z"/>
	<path id="XMLID_24_" class="st0" d="M110.9,6.4h-11c-4.5,0-5.7,3-6,4.6c-1.4,7.5-2.1,11.5-2.1,12.1c0,0-0.5,4.6,4.3,4.6h11.1
		c4.7,0,5.7-3.7,5.8-4.4l-13.6,0c-2.6,0.1-2.2-3.8-2.2-3.8h12.4c1.9,0,3.4-1.1,4.5-3.2c0.3-0.7,0.7-2.5,1-5.3
		C115.2,11,115.8,6.4,110.9,6.4z M105.4,15.1H98c0-4,1.9-4.3,3.4-4.3h7.1c0,0,1.5,0,1.4,0.7C109.7,14.8,110.1,15.2,105.4,15.1z"/>
	<path id="XMLID_25_" class="st0" d="M147.7,14.2c2.4-1.8,3.1-3.1,3.1-4.5c0,0,0.1-3.4-3.5-3.4h-10.1c-3.8,0-5.3,2.9-5.8,4.4v0h13
		v0.1l-9.7,7.5c-4.9,3.6-4.6,6.2-4.6,6.2c0.1,2.2-0.1,3.6,9.6,3.3h4.8c4.5,0,5.7-4.4,5.7-4.4h-14.1L147.7,14.2z"/>
	<path id="XMLID_29_" class="st0" d="M23.5,7c0-0.4-0.3-0.6-0.6-0.6H8.2c-4.3,0-5.7,2.5-6.1,4.7c-2.3,11.6-3.9,16.5,2.1,16.7h0.1
		l2.3-14.1c0.5-2.7,1.7-2.8,3.3-2.8c0,0,10.2-0.1,10.6-0.2C22.5,9.9,23.5,8.7,23.5,7z"/>
	<path id="XMLID_30_" class="st0" d="M130.5,6.4l-6.8,0l1.1-6.1c-0.3,0-4.9-0.1-5.8,5c-2,11-3,16.9-3.1,17.8l0,0
		c-0.1,0.9,0.2,4.6,3.9,4.6h0c0.2-0.6,1.2-6.3,3.1-16.8h2.9c3.7,0,4.7-2.1,4.7-3.9V6.4z"/>
</g>
</svg>