<?xml version="1.0" encoding="utf-8"?>
<!-- Generator: Adobe Illustrator 19.0.0, SVG Export Plug-In . SVG Version: 6.00 Build 0)  -->
<svg version="1.1" id="Camada_1" xmlns="http://www.w3.org/2000/svg" xmlns:xlink="http://www.w3.org/1999/xlink" x="0px" y="0px"
	 viewBox="-86 37.1 26.5 22.5" style="enable-background:new -86 37.1 26.5 22.5;" xml:space="preserve">
<g>
	<g>
		<path d="M-72.5,37.2c3.5,0,7,0.1,10.6,0c1.9-0.1,2.5,0.7,2.4,2.5c-0.1,4-0.1,8,0,12.1c0,1.8-0.5,2.5-2.4,2.5
			c-7.2-0.1-14.5-0.1-21.7,0c-1.5,0-2.4-0.3-2.4-2.1c0.1-4.2,0.1-8.4,0-12.7c0-1.8,0.8-2.2,2.4-2.2C-79.9,37.2-76.2,37.2-72.5,37.2z
			 M-61.6,52.1c0-4.4,0-8.6,0-12.7c-7.6,0-14.9,0-22.3,0c0,4.4,0,8.5,0,12.7C-76.5,52.1-69.2,52.1-61.6,52.1z"/>
		<path d="M-76.7,59.6c0.6-1.5,1.2-2.8,1.9-4.3c1.3,0,2.9,0,4.3,0c0.6,1.4,1.2,2.8,1.8,4.3C-71.4,59.6-74.1,59.6-76.7,59.6z"/>
	</g>
</g>
</svg>
