<?xml version="1.0" encoding="utf-8"?>
<!-- Generator: Adobe Illustrator 19.0.0, SVG Export Plug-In . SVG Version: 6.00 Build 0)  -->
<svg version="1.1" id="Camada_1" xmlns="http://www.w3.org/2000/svg" xmlns:xlink="http://www.w3.org/1999/xlink" x="0px" y="0px"
	 viewBox="-65.5 34.9 25 24.4" style="enable-background:new -65.5 34.9 25 24.4;" xml:space="preserve">
<g>
	<g>
		<path d="M-65.4,54.4c0-6.5,0-13,0-19.4c6.6,0,13.2,0,19.8,0c0.3,6.8,0.2,17.4-0.2,19.4C-52.3,54.4-58.8,54.4-65.4,54.4z"/>
		<path d="M-48.4,59.3c0.1-0.3,0-0.7,0.2-0.9c2.6-2.5,5.2-5,7.8-7.6c0,1.3,0,2.7,0,4c-1.5,1.5-3,3-4.5,4.5
			C-46.1,59.3-47.3,59.3-48.4,59.3z"/>
		<path d="M-40.4,45.4c-1.2,1-2.4,2.1-3.8,3.4c0-1.4,0-2.4,0-3.8c1.1-1,2.5-2.3,3.8-3.5C-40.4,42.7-40.4,44.1-40.4,45.4z"/>
		<path d="M-58.4,59.3c0.1-0.4,0.1-0.8,0.4-1.1c0.9-1,1.8-1.9,2.8-2.9c1.2,0,2.4,0,3.8,0c-1.2,1.4-2.4,2.7-3.5,3.9
			C-56.1,59.3-57.2,59.3-58.4,59.3z"/>
		<path d="M-53.4,59.3c0.1-0.4,0.1-0.8,0.4-1.1c0.9-1,1.8-1.9,2.8-2.9c1.2,0,2.4,0,3.8,0c-1.2,1.4-2.4,2.7-3.5,3.9
			C-51.1,59.3-52.2,59.3-53.4,59.3z"/>
		<path d="M-40.4,50.4c-0.4,0.1-0.8,0.1-1.1,0.4c-0.9,0.8-1.8,1.7-2.8,2.8c-0.2-1.4,0-2.7-0.1-3.8c1.4-1.2,2.7-2.2,4-3.3
			C-40.4,47.7-40.4,49-40.4,50.4z"/>
		<path d="M-40.4,55.8c0,1.2,0,2.3,0,3.5c-1,0-2,0-3,0c0.1-0.3,0-0.7,0.2-0.9C-42.4,57.5-41.4,56.7-40.4,55.8z"/>
		<path d="M-44.4,41.5c0.7,0,1.3,0,2,0c-0.2,1.2-1.2,1.6-2,2.7C-44.4,43-44.4,42.3-44.4,41.5z"/>
		<path d="M-58.3,57.1c0-0.4,0-0.9,0-1.6c0.6,0,1.2,0,1.6,0C-57.2,56-57.8,56.5-58.3,57.1z"/>
	</g>
</g>
</svg>
