<?xml version="1.0" encoding="utf-8"?>
<!-- Generator: Adobe Illustrator 19.0.0, SVG Export Plug-In . SVG Version: 6.00 Build 0)  -->
<svg version="1.1" id="Camada_1" xmlns="http://www.w3.org/2000/svg" xmlns:xlink="http://www.w3.org/1999/xlink" x="0px" y="0px"
	 viewBox="0 0 31.8 50" style="enable-background:new 0 0 31.8 50;" xml:space="preserve">
<path id="XMLID_2_" d="M16.9,0.1v4.1c0,0,0.3-0.2,1.1,0.2c1.4,0.7,2.2,2.2,2.2,3.8v9c0,1.2-0.4,2.4-1.2,3.4c-0.5,0.5-1.1,1-1.8,1
	v3.5c0,0,0.2,0.6-1.4,0.6s-1.4-0.6-1.4-0.6v-3.5c-0.7,0-1.3-0.4-1.8-1c-0.8-0.9-1.2-2.1-1.2-3.4v-9c0-1.6,0.8-3.1,2.2-3.8
	c0.8-0.4,1.1-0.2,1.1-0.2V0.1C2.1,0.1,0,12,0,12s0,7,0,22.2c0,15.2,15.9,15.9,15.9,15.9s15.9-0.7,15.9-15.9c0-15.2,0-22.2,0-22.2
	S29.7,0.1,16.9,0.1z"/>
<path id="XMLID_5_" d="M15.9,5.3L15.9,5.3c0,0-2.6-0.1-2.6,2.5s0,9.3,0,9.3s0.4,1.8,1.8,1.8c0.4,0,0.6,0,0.7,0v0c0.1,0,0.4,0,0.7,0
	c1.5,0,1.8-1.8,1.8-1.8s0-6.6,0-9.3C18.4,5.3,16,5.3,15.9,5.3z"/>
</svg>
