<?xml version="1.0" encoding="utf-8"?>
<!-- Generator: Adobe Illustrator 19.0.0, SVG Export Plug-In . SVG Version: 6.00 Build 0)  -->
<svg version="1.1" id="Camada_1" xmlns="http://www.w3.org/2000/svg" xmlns:xlink="http://www.w3.org/1999/xlink" x="0px" y="0px"
	 viewBox="-86 31 26.5 40" style="enable-background:new -86 31 26.5 40;" xml:space="preserve">
<style type="text/css">
	.st0{fill:#000100;}
</style>
<g id="XMLID_1_">
	<polygon id="XMLID_2_" class="st0" points="-63.2,53.4 -68.8,51.7 -68.1,70.9 -66.9,70.9 -60.8,70.7 -61,68.7 	"/>
	<polygon id="XMLID_90_" class="st0" points="-63.5,51.1 -65.5,36.5 -70.1,33.9 -70.2,33.2 -65.6,35.2 -65.7,35 -62.8,36.3 
		-62.8,36.8 -64.1,36.7 -65.3,36.5 -63.3,51 -60.4,50.3 -62.5,35.9 -65.7,34.4 -71.4,31.8 -68.9,48.1 	"/>
	<path id="XMLID_96_" class="st0" d="M-75,65.2L-75,65.2l-9.6-1h-0.1l0.4-1.8l6.8,1.8l2.2,0.9l-0.9-0.6l-0.2-0.1h0.5l0.3,0.3l0,0
		l-0.3-0.3l-0.2-0.6l0,0l-6.8-3.2l-0.3-0.6v0.3l-1.5,1.2l0,0l1.7-0.9l0.4,0.2l-0.2,0.1h0.2l5.3,2.3l0.3,0.5l-0.3,0.2l-6.8-2l0,0
		l-0.2,0.1l-0.4-0.5l0,0l0.4,0.6l0,0l-0.4,1.5l0,0l-0.1,0.4l0.9,2.5l0.2,0.2L-76,69l1.3,0.2v-4.6l-1-0.4L-75,65.2z M-76.1,63.8
		l0.1,0.5l-0.8-0.1L-76.1,63.8z"/>
	<polygon id="XMLID_97_" class="st0" points="-83,44 -83,44 -82.6,45.7 -82.5,45.6 -82.9,43.9 	"/>
	<polygon id="XMLID_98_" class="st0" points="-82.8,43.8 -82.4,45.5 -82.3,45.4 -82.7,43.7 	"/>
	<polygon id="XMLID_99_" class="st0" points="-82.7,43.6 -82.2,45.3 -82.1,45.2 -82.6,43.5 	"/>
	<polygon id="XMLID_100_" class="st0" points="-82.5,43.4 -82.1,45.1 -82,45 -82.4,43.3 	"/>
	<polygon id="XMLID_101_" class="st0" points="-82.3,43.2 -81.9,44.9 -81.7,44.8 -82.2,43 	"/>
	<polygon id="XMLID_102_" class="st0" points="-82.1,42.9 -82.1,42.9 -81.7,44.7 -81.5,44.5 -82,42.8 	"/>
	<polygon id="XMLID_103_" class="st0" points="-81.9,42.7 -81.9,42.7 -81.4,44.4 -81.3,44.2 -81.7,42.5 	"/>
	<polygon id="XMLID_104_" class="st0" points="-81.6,42.4 -81.2,44.2 -80.9,43.9 -81.4,42.1 	"/>
	<polygon id="XMLID_105_" class="st0" points="-81.3,42 -80.9,43.8 -80.6,43.5 -81,41.7 	"/>
	<polygon id="XMLID_106_" class="st0" points="-79.9,42.8 -79.9,42.8 -80.4,40.9 -80.9,41.6 -80.5,43.4 	"/>
	<path id="XMLID_107_" class="st0" d="M-73.7,35.4l-0.4,0.4l-0.4,0.4v0.5v0.4l0.3-0.3l0.4-0.4c0.1-0.1,0.3-0.3,0.4-0.4
		c0.1-0.1,0.3-0.3,0.5-0.4v-3.5l-7.5,8.8l0.5,1.8l5.4-6l0,0v-0.5l0,0l0,0l0.4-0.4L-73.7,35.4c0.1-0.2,0.2-0.3,0.3-0.5
		c0.1-0.1,0.3-0.3,0.4-0.4c-0.1,0.1-0.2,0.3-0.4,0.4C-73.4,35.1-73.5,35.3-73.7,35.4z"/>
	<path id="XMLID_108_" class="st0" d="M-73.3,36.2c-0.1,0.1-0.3,0.3-0.4,0.4l-0.4,0.4l-0.4,0.4l0,0l0,0l-0.1,32.3l0.8,0.2l1.1-5.3
		l0,0l-0.1-28.8C-72.9,35.8-73.1,36-73.3,36.2z"/>
	<path id="XMLID_111_" class="st0" d="M-77.9,62.6l1.6,0.1l0.6-0.2l0.3-22.5l-0.5-0.3l-0.3,0.1l-5.6,6.4v0.2l-1,13.5l0.2,0.5
		L-77.9,62.6z M-76.8,60.9l-0.2,0.2l-0.9,0.2v-0.1v-1.1V60l1.1-0.1V60.9z M-81.5,46.2l4.9-5.7l-0.3,19.2l-1.1,0.1l-4.1-0.9h1.7h-0.3
		h-1.6v0v0.6v0.1l4.2,1.7l0.8-0.2l-0.7,0.6l-4.8-2.1L-81.5,46.2z"/>
	<polygon id="XMLID_113_" class="st0" points="-68.9,48.3 -68.8,51.3 -63.2,53.2 -63.5,51.2 	"/>
	<polygon id="XMLID_114_" class="st0" points="-72.1,31.8 -70.3,50.2 -69.1,50.9 -69.2,48.1 -70.2,40.7 -70.2,40.9 -71.5,31.8 
		-71.7,31.8 -71.7,31.9 -71.7,31.9 	"/>
	<polygon id="XMLID_115_" class="st0" points="-70.8,50.6 -72.6,32.1 -72.2,70 -68.8,70.8 -69.3,51.5 	"/>
	<path id="XMLID_116_" class="st0" d="M-82.8,61.2c-0.2,0.1-0.4,0.3-0.5,0.4c-0.2,0.1-0.4,0.3-0.5,0.4l0,0h0.1l0.8,0.3l0.8,0.2
		l0.8,0.2l0.8,0.2l0.8,0.2c0.3,0.1,0.6,0.2,0.8,0.2c0.3,0.1,0.6,0.2,0.8,0.2c0.2,0.1,0.4,0.1,0.7,0.2l0.2,0.1l-0.3-0.3l-6-1.9
		c0.1-0.1,0.2-0.2,0.3-0.3C-83.2,61.5-83,61.3-82.8,61.2z"/>
	<path id="XMLID_117_" class="st0" d="M-76.5,35.5c0,0-0.7,1.3-1.5,2.3l5.3-6.1l0.1,0.3v-0.4l0.8-0.3l-1,0.1L-76.5,35.5z"/>
	<polygon id="XMLID_118_" class="st0" points="-82.8,45.9 -83.2,44 -86,63.2 -84.6,55.8 	"/>
	<polygon id="XMLID_119_" class="st0" points="-78.6,37.8 -78.2,36.1 -82.8,42.8 -83.2,44 -82.6,43.3 	"/>
	<polygon id="XMLID_120_" class="st0" points="-65.7,34.3 -62.4,35.8 -61.6,41.4 -60.2,50.2 -60.8,45.3 -61.7,37 -62,36.4 -62,36.4 
		-62.3,35.9 -62.3,35.8 -62,35.4 -62.4,35.7 	"/>
	<path id="XMLID_121_" class="st0" d="M-61,68.7L-61,68.7L-61,68.7z"/>
	<path id="XMLID_122_" class="st0" d="M-69.4,31.9c0.1,0.1,0.2,0.2,0.3,0.3c0.1,0.1,0.2,0.2,0.3,0.3l0.2,0.1l0.2,0.1
		c0.1,0.1,0.2,0.1,0.3,0.2c0.1,0.1,0.2,0.1,0.3,0.2c0.1,0.1,0.2,0.1,0.4,0.2c0.2,0.1,0.5,0.2,0.7,0.4l0.4,0.2l0.4,0.2
		c0.2,0.1,0.5,0.2,0.7,0.3c0.1,0.1,0.2,0.1,0.4,0.2c0.1,0,0.3,0.1,0.4,0.1c0.1,0,0.3,0.1,0.4,0.1s0.3,0.1,0.4,0L-63,35l0.3,0.1
		l0.9,0.4l0,0l0,0l-7.4-3.7l0,0l0,0l-1.5-0.8l0,0l0,0l-0.4,0.2h0.4L-69.4,31.9z"/>
	<polygon id="XMLID_124_" class="st0" points="-59.8,62.9 -60.1,52.6 -60.1,65.1 -60.2,64 -60.4,52.7 -62.9,53.4 -60.6,70.7 
		-59.5,70.5 	"/>
	<polygon id="XMLID_125_" class="st0" points="-72.8,31.3 -72.6,31.3 -72.8,31.2 -78.1,36 -73.9,32.4 	"/>
	<polygon id="XMLID_126_" class="st0" points="-84.8,61.7 -82.8,45.9 -85.3,62.3 	"/>
	<polygon id="XMLID_127_" class="st0" points="-85.4,62.5 -85.8,63.3 -85.4,63 	"/>
	<polygon id="XMLID_128_" class="st0" points="-85.8,63.3 -84.3,66.1 -85.6,63.2 	"/>
	<path id="XMLID_131_" class="st0" d="M-84.9,62.1C-84.9,62.2-84.9,62.2-84.9,62.1c-0.1,0.1-0.1,0.2-0.1,0.3s0,0.1,0,0.2v0.1v0.1
		c0,0.1,0,0.1,0,0.2c0,0.1,0,0.1,0.1,0.2v0.1v0.1v0.1v0.1c0.1-0.2,0.1-0.3,0.1-0.5s0.1-0.3,0.1-0.5l0,0l0,0c0-0.1-0.1-0.1-0.1-0.2
		L-84.9,62.1L-84.9,62.1L-84.9,62.1L-84.9,62.1z M-84.7,62.3c0,0.1,0.1,0.1,0.1,0.2c0,0.2-0.1,0.3-0.1,0.5c0,0.1,0,0.1,0,0.2
		C-84.7,63.1-84.9,62.7-84.7,62.3L-84.7,62.3z"/>
	<polygon id="XMLID_132_" class="st0" points="-77.7,56 -77.5,57.2 -76.8,57.2 -77,56.4 	"/>
	<polygon id="XMLID_133_" class="st0" points="-79.6,55.3 -81,55.5 -79.6,55.4 	"/>
	<path id="XMLID_136_" class="st0" d="M-81.3,56l1.5,0.2l0.1-0.3l0.2-0.4h-1.8V56L-81.3,56z M-80.3,55.8
		C-80.2,55.8-80.2,55.9-80.3,55.8c0,0.1,0,0.2,0,0.2C-80.3,56-80.3,56-80.3,55.8C-80.3,55.9-80.3,55.8-80.3,55.8z M-81.2,55.8
		L-81.2,55.8C-81.2,55.9-81.2,55.9-81.2,55.8C-81.2,55.9-81.2,55.9-81.2,55.8L-81.2,55.8z"/>
	
		<rect id="XMLID_138_" x="-81.5" y="56.1" transform="matrix(0.9921 0.1253 -0.1253 0.9921 6.3952 10.5506)" class="st0" width="1.6" height="0.1"/>
	<rect id="XMLID_139_" x="-81.6" y="57.9" class="st0" width="1.7" height="0.1"/>
	<polygon id="XMLID_140_" class="st0" points="-79.9,56.4 -81.5,56.2 -81.5,56.2 	"/>
	<polygon id="XMLID_141_" class="st0" points="-81.5,56.4 -79.9,56.5 -79.9,56.5 	"/>
	<polygon id="XMLID_142_" class="st0" points="-81.5,56.5 -80,56.7 -80,56.6 	"/>
	<polygon id="XMLID_143_" class="st0" points="-81.6,56.7 -80,56.8 -80,56.8 -81.6,56.6 	"/>
	<polygon id="XMLID_144_" class="st0" points="-81.6,56.8 -80,56.9 -80,56.9 	"/>
	<polygon id="XMLID_145_" class="st0" points="-81.7,57 -80,57 -80,57 -80,57 -81.6,57 	"/>
	<polygon id="XMLID_146_" class="st0" points="-81.6,57.1 -80,57.1 -80,57.1 	"/>
	<polygon id="XMLID_147_" class="st0" points="-81.6,57.3 -80,57.3 -80,57.3 	"/>
	<polygon id="XMLID_148_" class="st0" points="-81.6,57.4 -80,57.4 -80,57.4 	"/>
	<polygon id="XMLID_149_" class="st0" points="-81.6,57.6 -80,57.6 -80,57.6 	"/>
	<polygon id="XMLID_150_" class="st0" points="-81.6,57.7 -80,57.7 -80,57.7 	"/>
	<path id="XMLID_153_" class="st0" d="M-81.3,58.1L-81.3,58.1l-0.2,0.3l-0.1,0.1l1.9,0.2l-0.2-0.7L-81.3,58.1z M-81.3,58.3
		C-81.4,58.3-81.4,58.3-81.3,58.3C-81.3,58.2-81.3,58.2-81.3,58.3C-81.3,58.2-81.3,58.2-81.3,58.3L-81.3,58.3z M-80.3,58.3
		C-80.3,58.3-80.4,58.2-80.3,58.3c0-0.1,0-0.2,0-0.2S-80.3,58.2-80.3,58.3L-80.3,58.3z"/>
	<polygon id="XMLID_155_" class="st0" points="-81.5,55.9 -81.5,55.9 -81.6,55.5 -81.9,55.6 	"/>
	<polygon id="XMLID_156_" class="st0" points="-81.5,58.1 -81.6,58.1 -82.1,58.4 -81.8,58.5 -81.6,58.2 	"/>
	<path id="XMLID_159_" class="st0" d="M-81.7,58.1l-0.1-1.1l0.2-1l-0.4-0.4l-0.2,1.4v1.4L-81.7,58.1z M-81.7,58.1
		c0-0.2-0.1-0.4-0.1-0.6l-0.1-0.6l0,0l0,0c0.1-0.3,0.2-0.7,0.3-1l-0.2-0.2l0.3,0.2l0,0l0,0c-0.1,0.3-0.2,0.7-0.3,1l0.1,0.6
		C-81.8,57.7-81.8,57.9-81.7,58.1L-81.7,58.1L-81.7,58.1l-0.3,0.2L-81.7,58.1z"/>
	<path id="XMLID_167_" class="st0" d="M-79,56.5c-0.2,0-0.3,0.3-0.3,0.6s0.1,0.6,0.3,0.6s0.3-0.3,0.3-0.6
		C-78.8,56.8-78.9,56.5-79,56.5z"/>
	<path id="XMLID_170_" class="st0" d="M-79,56.4c-0.2,0-0.4,0.4-0.4,0.8c0,0.4,0.2,0.8,0.4,0.8s0.4-0.4,0.4-0.8
		C-78.6,56.7-78.8,56.4-79,56.4z M-79,57.8c-0.2,0-0.3-0.3-0.3-0.7s0.1-0.7,0.3-0.7s0.3,0.3,0.3,0.7C-78.7,57.5-78.9,57.8-79,57.8z"
		/>
	<path id="XMLID_173_" class="st0" d="M-78.9,55.3c-0.5,0-0.9,0.8-0.9,1.9c0,1,0.4,1.9,0.9,1.9s0.9-0.8,0.9-1.9
		S-78.4,55.3-78.9,55.3z M-78.9,58.9c-0.4,0-0.8-0.8-0.8-1.7s0.4-1.7,0.8-1.7s0.8,0.8,0.8,1.7C-78.1,58.1-78.5,58.9-78.9,58.9z"/>
	<path id="XMLID_174_" class="st0" d="M-82.4,50.9c0,0.4-0.1,0.8-0.1,1.2s-0.1,0.8-0.1,1.2s-0.1,0.8-0.1,1.2s-0.1,0.8-0.1,1.2
		s-0.1,0.7-0.1,1.1c0,0.3,0,0.7-0.1,1c0,0.3,0,0.6-0.1,0.8c0,0.2,0,0.5,0,0.6c0,0.4,0,0.6,0,0.6s0-0.2,0.1-0.6c0-0.2,0-0.4,0.1-0.6
		c0-0.2,0.1-0.5,0.1-0.8s0.1-0.6,0.1-1c0-0.3,0.1-0.7,0.1-1.1c0-0.4,0.1-0.8,0.1-1.2s0.1-0.8,0.1-1.2s0.1-0.8,0.1-1.2
		s0.1-0.8,0.1-1.2c0.1-0.8,0.1-1.5,0.2-2.1c0-0.3,0-0.6,0.1-0.8c0-0.2,0-0.5,0-0.6c0-0.4,0-0.6,0-0.6l0,0v-0.5l-0.6-0.3l-1.3,9
		l1.7-6.3c0,0,0,0,0,0.1C-82.3,49.4-82.4,50.1-82.4,50.9z"/>
	<polygon id="XMLID_175_" class="st0" points="-74.7,39.8 -75.5,39.7 -75.1,39.9 -75.3,63 -74.8,64.5 	"/>
	<polygon id="XMLID_176_" class="st0" points="-77.5,57.2 -77.8,58.6 -77.1,58.2 -76.8,57.2 -77,57.2 	"/>
	<polygon id="XMLID_177_" class="st0" points="-77.3,55.1 -78.1,55.2 -77.7,55.9 -76.8,56.5 -77.1,55.1 	"/>
	<polygon id="XMLID_178_" class="st0" points="-77.8,58.6 -78.1,59.2 -77.2,59.4 -76.9,58.2 -77.1,58.3 	"/>
</g>
<polygon id="XMLID_3_" class="st0" points="-63.2,51.2 -62.9,53.1 -60.4,52.3 -60.4,50.5 "/>
<polygon class="st0" points="-72.9,32.1 -83.2,44 -85.6,63.2 -84.7,64.2 -74.1,69.5 -73,36.2 -72.8,35.8 -72.9,35.6 -73,35.4 "/>
</svg>
