<?xml version="1.0" encoding="utf-8"?>
<!-- Generator: Adobe Illustrator 19.0.0, SVG Export Plug-In . SVG Version: 6.00 Build 0)  -->
<svg version="1.1" id="Camada_2" xmlns="http://www.w3.org/2000/svg" xmlns:xlink="http://www.w3.org/1999/xlink" x="0px" y="0px"
	 viewBox="-86 37.1 12.3 12.3" style="enable-background:new -86 37.1 12.3 12.3;" xml:space="preserve">
<g>
	<g>
		<path d="M-73.7,43.3c0,3.4-2.7,6.1-6.1,6.1c-3.4,0-6.1-2.7-6.1-6.1c0-3.4,2.8-6.1,6.1-6.1C-76.5,37.1-73.7,39.9-73.7,43.3z
			 M-84.7,42.9c0.2,0,0.4,0,0.6,0c1-0.2,2-0.7,2.9-1c0.9-0.3,1.8-0.3,2.8,0c0.7,0.2,1.4,0.7,2.1,0.9c0.5,0.1,0.9,0.1,1.4,0.2
			c-0.2-2.4-2.2-4.6-5-4.5C-83,38.5-84.7,40.9-84.7,42.9z M-80.9,48.1c0.2-1,0.4-1.9,0.3-2.8c-0.1-0.8-0.6-1.3-1.4-1.4
			c-0.9-0.1-1.7,0.2-2.5,0.6c-0.1,0-0.1,0.2-0.1,0.3c0.2,0.7,0.6,1.4,1.1,1.9C-82.8,47.3-81.9,47.8-80.9,48.1z M-75.1,44.4
			c-0.8-0.4-1.6-0.8-2.6-0.6c-0.9,0.1-1.5,0.7-1.4,1.6c0,0.9,0.2,1.8,0.3,2.6c0,0,0,0,0.1,0.1C-77.1,47.8-75.5,46.2-75.1,44.4z
			 M-79.9,42.2c-0.6,0-1,0.4-1.1,1c0,0.6,0.5,1.1,1.1,1.1c0.6,0,1-0.5,1-1C-78.8,42.7-79.3,42.2-79.9,42.2z"/>
	</g>
</g>
</svg>
