<?xml version="1.0" encoding="utf-8"?>
<!-- Generator: Adobe Illustrator 19.0.0, SVG Export Plug-In . SVG Version: 6.00 Build 0)  -->
<svg version="1.1" id="Camada_1" xmlns="http://www.w3.org/2000/svg" xmlns:xlink="http://www.w3.org/1999/xlink" x="0px" y="0px"
	 viewBox="0 0 9.9 5.2" style="enable-background:new 0 0 9.9 5.2;" xml:space="preserve">
<g id="XMLID_5_">
	<g id="XMLID_99_">
		<path id="XMLID_116_" d="M0,0c3.2,0,6.5,0,9.8,0c0,1.7,0,3.4,0,5.2c-3.3,0-6.6,0-9.8,0C0,3.4,0,1.7,0,0z M1,4.3c2.7,0,5.3,0,7.9,0
			c0-1.2,0-2.3,0-3.5c-2.7,0-5.3,0-7.9,0C1,2,1,3.1,1,4.3z"/>
		<path id="XMLID_106_" d="M3.5,4.1c0-0.4,0-0.7,0-1.1c1,0,2,0,3,0c0,0.4,0,0.7,0,1.1C5.5,4.1,4.5,4.1,3.5,4.1z"/>
		<path id="XMLID_105_" d="M5.1,1.1c0.5,0,0.9,0,1.4,0c0,0.5,0,0.9,0,1.4c-0.4,0-0.9,0-1.4,0C5.1,2.1,5.1,1.6,5.1,1.1z"/>
		<path id="XMLID_104_" d="M3.1,1.1c0,0.5,0,0.9,0,1.4c-0.4,0-0.9,0-1.4,0c0-0.4,0-0.8,0-1.4C2.1,1.1,2.5,1.1,3.1,1.1z"/>
		<path id="XMLID_103_" d="M6.9,1.1c0.5,0,1,0,1.4,0c0,0.5,0,0.9,0,1.4c-0.5,0-0.9,0-1.4,0C6.9,2.1,6.9,1.6,6.9,1.1z"/>
		<path id="XMLID_101_" d="M3.1,4.1c-0.5,0-0.9,0-1.4,0c0-0.4,0-0.8,0-1.2c0.5,0,0.9,0,1.4,0C3.1,3.3,3.1,3.6,3.1,4.1z"/>
		<path id="XMLID_100_" d="M6.9,4.1c0-0.4,0-0.7,0-1.1c0.5,0,0.9,0,1.4,0c0,0.4,0,0.7,0,1.1C7.9,4.1,7.4,4.1,6.9,4.1z"/>
	</g>
</g>
<rect id="XMLID_2_" x="3.5" y="1.1" width="1.4" height="1.4"/>
</svg>
