<?xml version="1.0" encoding="iso-8859-1"?>
<!-- Generator: Adobe Illustrator 18.0.0, SVG Export Plug-In . SVG Version: 6.00 Build 0)  -->
<!DOCTYPE svg PUBLIC "-//W3C//DTD SVG 1.1//EN" "http://www.w3.org/Graphics/SVG/1.1/DTD/svg11.dtd">
<svg version="1.1" id="Capa_1" xmlns="http://www.w3.org/2000/svg" xmlns:xlink="http://www.w3.org/1999/xlink" x="0px" y="0px"
	 viewBox="0 0 297.158 297.158" style="enable-background:new 0 0 297.158 297.158;" xml:space="preserve">
<g>
	<path d="M275.778,127.2c0-70.249-56.951-127.2-127.2-127.2C78.332,0,21.381,56.951,21.381,127.2
		c0,49.793,28.619,92.897,70.3,113.782c-14.296,14.433-23.147,34.268-23.198,56.176h160.192
		c-0.051-21.908-8.902-41.743-23.198-56.176C247.159,220.098,275.778,176.993,275.778,127.2z M148.578,212.367
		c-46.961,0-85.167-38.206-85.167-85.167c0-46.962,38.206-85.169,85.167-85.169c46.962,0,85.169,38.207,85.169,85.169
		C233.747,174.161,195.54,212.367,148.578,212.367z"/>
	<path d="M148.578,82.031c-24.905,0-45.167,20.263-45.167,45.169c0,24.905,20.262,45.167,45.167,45.167
		c24.906,0,45.169-20.262,45.169-45.167C193.747,102.294,173.484,82.031,148.578,82.031z"/>
</g>
<g>
</g>
<g>
</g>
<g>
</g>
<g>
</g>
<g>
</g>
<g>
</g>
<g>
</g>
<g>
</g>
<g>
</g>
<g>
</g>
<g>
</g>
<g>
</g>
<g>
</g>
<g>
</g>
<g>
</g>
</svg>
