<?xml version="1.0" encoding="utf-8"?>
<!-- Generator: Adobe Illustrator 19.0.0, SVG Export Plug-In . SVG Version: 6.00 Build 0)  -->
<svg version="1.1" id="Camada_2" xmlns="http://www.w3.org/2000/svg" xmlns:xlink="http://www.w3.org/1999/xlink" x="0px" y="0px"
	 viewBox="-86 37.1 14.5 19.4" style="enable-background:new -86 37.1 14.5 19.4;" xml:space="preserve">
<circle cx="-78.7" cy="43.4" r="1.2"/>
<path d="M-78.7,37.1c-3.4,0-6.2,2.8-6.2,6.2s2.8,6.2,6.2,6.2c3.4,0,6.2-2.8,6.2-6.2S-75.3,37.1-78.7,37.1z M-78.7,47.9
	c-2.5,0-4.6-2.1-4.6-4.6c0-2.5,2.1-4.6,4.6-4.6c2.5,0,4.6,2.1,4.6,4.6C-74.2,45.9-76.2,47.9-78.7,47.9z"/>
<g>
	<circle cx="-78.7" cy="43.4" r="1.2"/>
	<circle cx="-78.7" cy="43.4" r="1.2"/>
</g>
<path d="M-73.3,53.6c-4.4,0-3.4-2.5-3.4-2.5h-2h-2c0,0,1,2.5-3.4,2.5c0,0-1.8,0.4-1.8,1.8c0,1.4,2.7,1.1,2.7,1.1s1.3-2,4.6-2
	c3.3,0,4.6,2,4.6,2s2.7,0.3,2.7-1.1C-71.5,54-73.3,53.6-73.3,53.6z"/>
</svg>
