<?xml version="1.0" encoding="utf-8"?>
<!-- Generator: Adobe Illustrator 19.0.0, SVG Export Plug-In . SVG Version: 6.00 Build 0)  -->
<svg version="1.1" id="Camada_1" xmlns="http://www.w3.org/2000/svg" xmlns:xlink="http://www.w3.org/1999/xlink" x="0px" y="0px"
	 viewBox="-86 38.6 26.5 24.4" style="enable-background:new -86 38.6 26.5 24.4;" xml:space="preserve">
<style type="text/css">
	.st0{enable-background:new    ;}
</style>
<g class="st0">
	<path d="M-68.3,49.5v2.6c0,0.1,0,0.2-0.1,0.3c-0.1,0.1-0.1,0.1-0.2,0.1l-2.1,0.3c-0.1,0.3-0.2,0.7-0.4,1c0.3,0.4,0.7,1,1.2,1.6
		c0.1,0.1,0.1,0.2,0.1,0.3c0,0.1,0,0.2-0.1,0.3c-0.2,0.3-0.6,0.7-1.1,1.2c-0.5,0.5-0.9,0.8-1.1,0.8c-0.1,0-0.2,0-0.3-0.1l-1.6-1.2
		c-0.3,0.2-0.7,0.3-1.1,0.4c-0.1,1-0.2,1.7-0.3,2.1c-0.1,0.2-0.2,0.3-0.4,0.3h-2.6c-0.1,0-0.2,0-0.3-0.1c-0.1-0.1-0.1-0.1-0.1-0.2
		l-0.3-2.1c-0.3-0.1-0.7-0.2-1-0.4l-1.6,1.2c-0.1,0.1-0.2,0.1-0.3,0.1c-0.1,0-0.2,0-0.3-0.1c-1.3-1.2-2-2-2-2.2c0-0.1,0-0.2,0.1-0.3
		c0.1-0.1,0.3-0.4,0.6-0.7c0.3-0.4,0.5-0.6,0.6-0.8c-0.2-0.4-0.4-0.8-0.5-1.1l-2.1-0.3c-0.1,0-0.2-0.1-0.2-0.1
		C-86,52.2-86,52.2-86,52v-2.6c0-0.1,0-0.2,0.1-0.3c0.1-0.1,0.1-0.1,0.2-0.1l2.1-0.3c0.1-0.3,0.2-0.7,0.4-1c-0.3-0.4-0.7-1-1.2-1.6
		c-0.1-0.1-0.1-0.2-0.1-0.3c0-0.1,0-0.2,0.1-0.3c0.2-0.3,0.6-0.7,1.1-1.2s0.9-0.8,1.1-0.8c0.1,0,0.2,0,0.3,0.1l1.6,1.2
		c0.3-0.2,0.7-0.3,1.1-0.4c0.1-1,0.2-1.7,0.3-2.1c0.1-0.2,0.2-0.3,0.4-0.3h2.6c0.1,0,0.2,0,0.3,0.1c0.1,0.1,0.1,0.2,0.1,0.2l0.3,2.1
		c0.3,0.1,0.7,0.2,1,0.4l1.6-1.2c0.1-0.1,0.2-0.1,0.3-0.1c0.1,0,0.2,0,0.3,0.1c1.3,1.2,2,2,2,2.2c0,0.1,0,0.2-0.1,0.3
		c-0.1,0.1-0.3,0.4-0.6,0.7c-0.3,0.4-0.5,0.6-0.6,0.8c0.2,0.4,0.4,0.8,0.5,1.1l2.1,0.3c0.1,0,0.2,0.1,0.2,0.1
		C-68.4,49.3-68.3,49.4-68.3,49.5z M-74.7,53.3c0.7-0.7,1-1.5,1-2.5c0-1-0.3-1.8-1-2.5c-0.7-0.7-1.5-1-2.5-1c-1,0-1.8,0.3-2.5,1
		c-0.7,0.7-1,1.5-1,2.5c0,1,0.3,1.8,1,2.5c0.7,0.7,1.5,1,2.5,1C-76.2,54.3-75.4,54-74.7,53.3z M-59.5,42.8v1.9
		c0,0.1-0.7,0.3-2.1,0.4c-0.1,0.2-0.2,0.5-0.4,0.7c0.5,1,0.7,1.7,0.7,1.9c0,0,0,0.1-0.1,0.1c-1.1,0.7-1.7,1-1.7,1
		c-0.1,0-0.3-0.2-0.6-0.6c-0.4-0.4-0.6-0.7-0.7-0.9c-0.2,0-0.3,0-0.4,0c-0.1,0-0.2,0-0.4,0c-0.1,0.2-0.4,0.5-0.7,0.9
		c-0.4,0.4-0.6,0.6-0.6,0.6c0,0-0.6-0.3-1.7-1c0,0-0.1-0.1-0.1-0.1c0-0.2,0.2-0.9,0.7-1.9c-0.2-0.2-0.3-0.5-0.4-0.7
		c-1.4-0.1-2.1-0.3-2.1-0.4v-1.9c0-0.1,0.7-0.3,2.1-0.4c0.1-0.3,0.3-0.5,0.4-0.7c-0.5-1-0.7-1.7-0.7-1.9c0,0,0-0.1,0.1-0.1
		c0,0,0.2-0.1,0.5-0.3s0.6-0.3,0.8-0.5c0.3-0.1,0.4-0.2,0.4-0.2c0.1,0,0.3,0.2,0.6,0.6c0.3,0.4,0.6,0.7,0.7,0.9c0.2,0,0.3,0,0.4,0
		c0.1,0,0.2,0,0.4,0c0.5-0.7,0.9-1.2,1.3-1.5l0.1,0c0,0,0.6,0.3,1.7,1c0,0,0.1,0.1,0.1,0.1c0,0.2-0.2,0.9-0.7,1.9
		c0.2,0.2,0.3,0.5,0.4,0.7C-60.2,42.5-59.5,42.6-59.5,42.8z M-59.5,56.9v1.9c0,0.1-0.7,0.3-2.1,0.4c-0.1,0.2-0.2,0.5-0.4,0.7
		c0.5,1,0.7,1.7,0.7,1.9c0,0,0,0.1-0.1,0.1c-1.1,0.7-1.7,1-1.7,1c-0.1,0-0.3-0.2-0.6-0.6c-0.4-0.4-0.6-0.7-0.7-0.9
		c-0.2,0-0.3,0-0.4,0c-0.1,0-0.2,0-0.4,0c-0.1,0.2-0.4,0.5-0.7,0.9c-0.4,0.4-0.6,0.6-0.6,0.6c0,0-0.6-0.3-1.7-1c0,0-0.1-0.1-0.1-0.1
		c0-0.2,0.2-0.9,0.7-1.9c-0.2-0.2-0.3-0.5-0.4-0.7c-1.4-0.1-2.1-0.3-2.1-0.4v-1.9c0-0.1,0.7-0.3,2.1-0.4c0.1-0.3,0.3-0.5,0.4-0.7
		c-0.5-1-0.7-1.7-0.7-1.9c0,0,0-0.1,0.1-0.1c0,0,0.2-0.1,0.5-0.3c0.3-0.2,0.6-0.3,0.8-0.5c0.3-0.1,0.4-0.2,0.4-0.2
		c0.1,0,0.3,0.2,0.6,0.6c0.3,0.4,0.6,0.7,0.7,0.9c0.2,0,0.3,0,0.4,0c0.1,0,0.2,0,0.4,0c0.5-0.7,0.9-1.2,1.3-1.5l0.1,0
		c0,0,0.6,0.3,1.7,1c0,0,0.1,0.1,0.1,0.1c0,0.2-0.2,0.9-0.7,1.9c0.2,0.2,0.3,0.5,0.4,0.7C-60.2,56.6-59.5,56.7-59.5,56.9z M-63,43.7
		c0-0.5-0.2-0.9-0.5-1.2c-0.4-0.3-0.8-0.5-1.2-0.5c-0.5,0-0.9,0.2-1.2,0.5c-0.4,0.4-0.5,0.8-0.5,1.2c0,0.5,0.2,0.9,0.5,1.2
		c0.3,0.3,0.8,0.5,1.2,0.5c0.5,0,0.9-0.2,1.2-0.5C-63.2,44.6-63,44.2-63,43.7z M-63,57.9c0-0.5-0.2-0.9-0.5-1.2
		c-0.4-0.3-0.8-0.5-1.2-0.5c-0.5,0-0.9,0.2-1.2,0.5c-0.4,0.3-0.5,0.8-0.5,1.2c0,0.5,0.2,0.9,0.5,1.2c0.3,0.3,0.8,0.5,1.2,0.5
		c0.5,0,0.9-0.2,1.2-0.5S-63,58.3-63,57.9z"/>
</g>
</svg>
